<svg width="96" height="96" xmlns="http://www.w3.org/2000/svg" xmlns:xlink="http://www.w3.org/1999/xlink" xml:space="preserve" overflow="hidden"><g transform="translate(-608 -328)"><path d="M634.991 365.991C641.615 365.993 646.986 360.624 646.988 354 646.99 347.376 641.621 342.005 634.997 342.003 628.373 342.001 623.002 347.37 623 353.994 623 353.996 623 353.998 623 354 623.001 360.622 628.369 365.99 634.991 365.991ZM634.991 344.004C640.51 344.002 644.986 348.475 644.988 353.995 644.99 359.514 640.516 363.99 634.997 363.992 629.477 363.994 625.002 359.521 625 354.001 625 354.001 625 354 625 354 625 348.481 629.472 344.005 634.991 344Z"/><path d="M689.049 343.528C688.566 343.17 687.947 343.05 687.365 343.202L655.6 351.088 655.6 351.088 650.5 352.337 650.493 361.181 655.609 362.336 661.7 363.878 662.148 365.956C661.521 366.221 660.95 366.604 660.467 367.084L650.238 377.319 646.138 377.319C645.065 374.056 642.617 371.426 639.438 370.124 633.268 367.705 626.305 370.746 623.886 376.916 623.373 378.223 623.094 379.611 623.061 381.015L623.061 410.023 647 410.023 647 388.2 652.532 388.2C653.974 388.204 655.357 387.631 656.375 386.61L668.175 374.79C669.185 373.788 669.75 372.423 669.745 371 669.746 370.65 669.712 370.301 669.645 369.958L672.229 370.631 675.151 367.279 687.339 370.363 687.455 370.385C687.548 370.397 687.642 370.403 687.736 370.403 688.282 370.402 688.808 370.197 689.21 369.828 689.646 369.438 689.89 368.877 689.878 368.292L689.891 345.108C689.866 344.48 689.556 343.899 689.049 343.528ZM652.5 353.907 654.844 353.334 654.838 360.112 652.495 359.583ZM667.75 371.007C667.754 371.896 667.401 372.75 666.771 373.378L654.964 385.2C654.319 385.844 653.444 386.204 652.532 386.2L640.553 386.2 640.553 388.2 645 388.2 645 408.023 625.061 408.023 625.061 381.062C625.193 375.632 629.63 371.297 635.061 371.292 639.787 371.265 643.839 374.662 644.637 379.32L651.069 379.32 661.879 368.5C662.088 368.296 662.324 368.12 662.579 367.978L662.612 368.133 667.286 369.35C667.582 369.852 667.74 370.423 667.745 371.006ZM671.537 368.386 668.481 367.591C668.381 367.466 668.288 367.332 668.172 367.216L668.027 367.073C666.987 366.042 665.568 365.485 664.105 365.533L663.866 364.427 672.979 366.727ZM687.881 368.33C687.85 368.374 687.801 368.402 687.747 368.405L656.837 360.585 656.844 352.844 687.894 345.154Z"/></g></svg>